<svg width="32" height="47" viewBox="0 0 32 47" fill="none" xmlns="http://www.w3.org/2000/svg">
<path fill-rule="evenodd" clip-rule="evenodd" d="M31.3148 2.73184C31.3148 0.963183 29.5285 -0.246213 27.8863 0.410651L2.2567 10.6625C1.30756 11.0422 0.685181 11.9614 0.685181 12.9837V45.7037V46.2037H1.18518H30.8148H31.3148V45.7037V2.73184ZM28.2577 1.33913C29.243 0.94501 30.3148 1.67065 30.3148 2.73184V45.2037H24.8889V28.9264C24.8889 28.3741 24.4411 27.9264 23.8889 27.9264H8.11108C7.5588 27.9264 7.11108 28.3741 7.11108 28.9264V45.2037H1.68518V12.9837C1.68518 12.3703 2.05861 11.8188 2.62809 11.591L28.2577 1.33913ZM14.5185 16.0745H7.11108V24.9634H14.5185V16.0745ZM17.4815 16.0745H24.8889V19.0375H17.4815V16.0745ZM24.8889 10.1486H17.4815V13.1115H24.8889V10.1486ZM24.8889 22.0004H17.4815V24.9634H24.8889V22.0004Z" fill="#D1E3F8"/>
</svg>
